<svg width="55" height="64" viewBox="0 0 55 64" fill="none" xmlns="http://www.w3.org/2000/svg">
<g id="Assferatu" filter="url(#filter0_d_131_510)">
<rect id="Rectangle 75" x="19.7921" y="3.17639" width="2.94118" height="2.82353" fill="#8988C4"/>
<rect id="Rectangle 76" x="16.8509" y="6" width="2.94118" height="2.82353" fill="#8988C4"/>
<rect id="Rectangle 77" x="13.9097" y="6" width="2.94118" height="2.82353" fill="#8988C4"/>
<rect id="Rectangle 78" x="16.8509" y="8.82349" width="2.94118" height="2.82353" fill="#8988C4"/>
<rect id="Rectangle 81" x="19.7921" y="11.647" width="2.94118" height="2.82353" fill="#D9D9D9"/>
<rect id="Rectangle 83" x="19.7921" y="11.647" width="2.94118" height="2.82353" fill="#8988C4"/>
<rect id="Rectangle 86" x="16.8509" y="11.647" width="2.94118" height="2.82353" fill="#6A67B4"/>
<rect id="Rectangle 87" x="16.8509" y="14.4706" width="2.94118" height="2.82353" fill="#6A67B4"/>
<rect id="Rectangle 88" x="19.7921" y="14.4706" width="2.94118" height="2.82353" fill="#6A67B4"/>
<rect id="Rectangle 92" x="22.7332" y="14.4706" width="2.94118" height="2.82353" fill="#8988C4"/>
<rect id="Rectangle 93" x="25.6744" y="14.4706" width="2.94118" height="2.82353" fill="#8988C4"/>
<rect id="Rectangle 94" x="28.6156" y="14.4706" width="2.94118" height="2.82353" fill="#8988C4"/>
<rect id="Rectangle 89" x="19.7921" y="17.2941" width="2.94118" height="2.82353" fill="#6A67B4"/>
<rect id="Rectangle 95" x="22.7332" y="17.2941" width="2.94118" height="2.82353" fill="#8988C4"/>
<rect id="Rectangle 96" x="25.6744" y="17.2941" width="2.94118" height="2.82353" fill="#8988C4"/>
<rect id="Rectangle 201" x="25.6744" y="20.1176" width="2.94118" height="2.82353" fill="white"/>
<rect id="Rectangle 202" x="28.6156" y="20.1176" width="2.94118" height="2.82353" fill="white"/>
<rect id="Rectangle 203" x="31.5568" y="20.1176" width="2.94117" height="2.82353" fill="white"/>
<rect id="Rectangle 204" x="34.4979" y="20.1176" width="2.94118" height="2.82353" fill="white"/>
<rect id="Rectangle 207" x="34.4979" y="22.9412" width="2.94118" height="2.82353" fill="white"/>
<rect id="Rectangle 208" x="34.4979" y="25.7646" width="2.94118" height="2.82353" fill="white"/>
<rect id="Rectangle 212" x="31.5568" y="25.7646" width="2.94117" height="2.82353" fill="white"/>
<rect id="Rectangle 214" x="28.6156" y="25.7646" width="2.94118" height="2.82353" fill="white"/>
<rect id="Rectangle 215" x="25.6744" y="25.7646" width="2.94118" height="2.82353" fill="white"/>
<rect id="Rectangle 216" x="25.6744" y="28.5883" width="2.94118" height="2.82353" fill="white"/>
<rect id="Rectangle 217" x="22.7332" y="28.5883" width="2.94118" height="2.82353" fill="white"/>
<rect id="Rectangle 218" x="22.7332" y="31.4117" width="2.94118" height="2.82353" fill="white"/>
<rect id="Rectangle 219" x="25.6744" y="31.4117" width="2.94118" height="2.82353" fill="white"/>
<rect id="Rectangle 220" x="25.6744" y="34.2352" width="2.94118" height="2.82353" fill="white"/>
<rect id="Rectangle 221" x="25.6744" y="37.0588" width="2.94118" height="2.82353" fill="white"/>
<rect id="Rectangle 222" x="28.6156" y="37.0588" width="2.94118" height="2.82353" fill="white"/>
<rect id="Rectangle 223" x="28.6156" y="34.2352" width="2.94118" height="2.82353" fill="white"/>
<rect id="Rectangle 224" x="31.5568" y="34.2352" width="2.94117" height="2.82353" fill="white"/>
<rect id="Rectangle 225" x="31.5568" y="31.4117" width="2.94117" height="2.82353" fill="white"/>
<rect id="Rectangle 226" x="28.6156" y="31.4117" width="2.94118" height="2.82353" fill="white"/>
<rect id="Rectangle 209" x="34.4979" y="28.5883" width="2.94118" height="2.82353" fill="white"/>
<rect id="Rectangle 227" x="37.4391" y="28.5883" width="2.94118" height="2.82353" fill="white"/>
<rect id="Rectangle 228" x="37.4391" y="31.4117" width="2.94118" height="2.82353" fill="white"/>
<rect id="Rectangle 229" x="40.3803" y="31.4117" width="2.94118" height="2.82353" fill="white"/>
<rect id="Rectangle 230" x="40.3803" y="28.5883" width="2.94118" height="2.82353" fill="white"/>
<rect id="Rectangle 231" x="40.3803" y="25.7646" width="2.94118" height="2.82353" fill="white"/>
<rect id="Rectangle 213" x="31.5568" y="28.5883" width="2.94117" height="2.82353" fill="white"/>
<rect id="Rectangle 210" x="37.4391" y="31.4117" width="2.94118" height="2.82353" fill="white"/>
<rect id="Rectangle 211" x="40.3803" y="31.4117" width="2.94118" height="2.82353" fill="white"/>
<rect id="Rectangle 205" x="37.4391" y="20.1176" width="2.94118" height="2.82353" fill="white"/>
<rect id="Rectangle 206" x="37.4391" y="17.2941" width="2.94118" height="2.82353" fill="white"/>
<rect id="Rectangle 232" x="37.4391" y="14.4706" width="2.94118" height="2.82353" fill="white"/>
<rect id="Rectangle 233" x="34.4979" y="14.4706" width="2.94118" height="2.82353" fill="white"/>
<rect id="Rectangle 234" x="31.5568" y="14.4706" width="2.94117" height="2.82353" fill="white"/>
<rect id="Rectangle 235" x="31.5568" y="11.647" width="2.94117" height="2.82353" fill="white"/>
<rect id="Rectangle 236" x="28.6156" y="11.647" width="2.94118" height="2.82353" fill="white"/>
<rect id="Rectangle 237" x="28.6156" y="8.82349" width="2.94118" height="2.82353" fill="white"/>
<rect id="Rectangle 238" x="25.6744" y="8.82349" width="2.94118" height="2.82353" fill="white"/>
<rect id="Rectangle 239" x="25.6744" y="6" width="2.94118" height="2.82353" fill="white"/>
<rect id="Rectangle 240" x="22.7332" y="6" width="2.94118" height="2.82353" fill="white"/>
<rect id="Rectangle 241" x="19.7921" y="6" width="2.94118" height="2.82353" fill="white"/>
<rect id="Rectangle 242" x="22.7332" y="3.17639" width="2.94118" height="2.82353" fill="white"/>
<rect id="Rectangle 243" x="22.7332" y="0.352905" width="2.94118" height="2.82353" fill="white"/>
<rect id="Rectangle 244" x="19.7921" y="0.352905" width="2.94118" height="2.82353" fill="white"/>
<rect id="Rectangle 245" x="16.8509" y="0.352905" width="2.94118" height="2.82353" fill="white"/>
<rect id="Rectangle 246" x="16.8509" y="3.17639" width="2.94118" height="2.82353" fill="white"/>
<rect id="Rectangle 247" x="13.9097" y="3.17639" width="2.94118" height="2.82353" fill="white"/>
<rect id="Rectangle 248" x="10.9685" y="3.17639" width="2.94118" height="2.82353" fill="white"/>
<rect id="Rectangle 249" x="10.9685" y="6" width="2.94118" height="2.82353" fill="white"/>
<rect id="Rectangle 250" x="10.9685" y="8.82349" width="2.94118" height="2.82353" fill="white"/>
<rect id="Rectangle 251" x="13.9097" y="8.82349" width="2.94118" height="2.82353" fill="white"/>
<rect id="Rectangle 252" x="13.9097" y="11.647" width="2.94118" height="2.82353" fill="white"/>
<rect id="Rectangle 253" x="13.9097" y="14.4706" width="2.94118" height="2.82353" fill="white"/>
<rect id="Rectangle 254" x="10.9685" y="14.4706" width="2.94118" height="2.82353" fill="white"/>
<rect id="Rectangle 255" x="10.9685" y="17.2941" width="2.94118" height="2.82353" fill="white"/>
<rect id="Rectangle 256" x="10.9685" y="20.1176" width="2.94118" height="2.82353" fill="white"/>
<rect id="Rectangle 257" x="13.9097" y="20.1176" width="2.94118" height="2.82353" fill="white"/>
<rect id="Rectangle 258" x="13.9097" y="22.9412" width="2.94118" height="2.82353" fill="white"/>
<rect id="Rectangle 259" x="13.9097" y="25.7646" width="2.94118" height="2.82353" fill="white"/>
<rect id="Rectangle 260" x="13.9097" y="28.5883" width="2.94118" height="2.82353" fill="white"/>
<rect id="Rectangle 261" x="10.9685" y="28.5883" width="2.94118" height="2.82353" fill="white"/>
<rect id="Rectangle 262" x="10.9685" y="31.4117" width="2.94118" height="2.82353" fill="white"/>
<rect id="Rectangle 263" x="10.9685" y="34.2352" width="2.94118" height="2.82353" fill="white"/>
<rect id="Rectangle 264" x="8.02734" y="34.2352" width="2.94118" height="2.82353" fill="white"/>
<rect id="Rectangle 265" x="8.02734" y="37.0588" width="2.94118" height="2.82353" fill="white"/>
<rect id="Rectangle 266" x="8.02734" y="39.8823" width="2.94118" height="2.82353" fill="white"/>
<rect id="Rectangle 267" x="5.08615" y="39.8823" width="2.94118" height="2.82353" fill="white"/>
<rect id="Rectangle 268" x="2.14499" y="39.8823" width="2.94118" height="2.82353" fill="white"/>
<rect id="Rectangle 269" x="2.14499" y="42.7058" width="2.94118" height="2.82353" fill="white"/>
<rect id="Rectangle 270" x="2.14499" y="45.5294" width="2.94118" height="2.82353" fill="white"/>
<rect id="Rectangle 271" x="5.08615" y="45.5294" width="2.94118" height="2.82353" fill="white"/>
<rect id="Rectangle 272" x="5.08615" y="48.3529" width="2.94118" height="2.82353" fill="white"/>
<rect id="Rectangle 273" x="8.02734" y="48.3529" width="2.94118" height="2.82353" fill="white"/>
<rect id="Rectangle 274" x="10.9685" y="48.3529" width="2.94118" height="2.82353" fill="white"/>
<rect id="Rectangle 275" x="10.9685" y="51.1764" width="2.94118" height="2.82353" fill="white"/>
<rect id="Rectangle 280" x="8.02734" y="51.1764" width="2.94118" height="2.82353" fill="white"/>
<rect id="Rectangle 281" x="5.08615" y="51.1764" width="2.94118" height="2.82353" fill="white"/>
<rect id="Rectangle 282" x="2.14499" y="51.1764" width="2.94118" height="2.82353" fill="white"/>
<rect id="Rectangle 283" x="2.14499" y="54" width="2.94118" height="2.82353" fill="white"/>
<rect id="Rectangle 284" x="2.14499" y="56.8235" width="2.94118" height="2.82353" fill="white"/>
<rect id="Rectangle 285" x="5.08615" y="56.8235" width="2.94118" height="2.82353" fill="white"/>
<rect id="Rectangle 286" x="8.02734" y="56.8235" width="2.94118" height="2.82353" fill="white"/>
<rect id="Rectangle 287" x="10.9685" y="56.8235" width="2.94118" height="2.82353" fill="white"/>
<rect id="Rectangle 288" x="13.9097" y="56.8235" width="2.94118" height="2.82353" fill="white"/>
<rect id="Rectangle 289" x="16.8509" y="56.8235" width="2.94118" height="2.82353" fill="white"/>
<rect id="Rectangle 290" x="19.7921" y="56.8235" width="2.94118" height="2.82353" fill="white"/>
<rect id="Rectangle 291" x="22.7332" y="56.8235" width="2.94118" height="2.82353" fill="white"/>
<rect id="Rectangle 292" x="25.6744" y="56.8235" width="2.94118" height="2.82353" fill="white"/>
<rect id="Rectangle 293" x="28.6156" y="56.8235" width="2.94118" height="2.82353" fill="white"/>
<rect id="Rectangle 294" x="31.5568" y="56.8235" width="2.94117" height="2.82353" fill="white"/>
<rect id="Rectangle 295" x="34.4979" y="56.8235" width="2.94118" height="2.82353" fill="white"/>
<rect id="Rectangle 296" x="34.4979" y="54" width="2.94118" height="2.82353" fill="white"/>
<rect id="Rectangle 297" x="34.4979" y="51.1764" width="2.94118" height="2.82353" fill="white"/>
<rect id="Rectangle 298" x="34.4979" y="48.3529" width="2.94118" height="2.82353" fill="white"/>
<rect id="Rectangle 299" x="34.4979" y="45.5294" width="2.94118" height="2.82353" fill="white"/>
<rect id="Rectangle 300" x="34.4979" y="42.7058" width="2.94118" height="2.82353" fill="white"/>
<rect id="Rectangle 301" x="34.4979" y="39.8823" width="2.94118" height="2.82353" fill="white"/>
<rect id="Rectangle 302" x="37.4391" y="39.8823" width="2.94118" height="2.82353" fill="white"/>
<rect id="Rectangle 303" x="37.4391" y="42.7058" width="2.94118" height="2.82353" fill="white"/>
<rect id="Rectangle 304" x="40.3803" y="42.7058" width="2.94118" height="2.82353" fill="white"/>
<rect id="Rectangle 305" x="40.3803" y="45.5294" width="2.94118" height="2.82353" fill="white"/>
<rect id="Rectangle 306" x="40.3803" y="48.3529" width="2.94118" height="2.82353" fill="white"/>
<rect id="Rectangle 307" x="40.3803" y="51.1764" width="2.94118" height="2.82353" fill="white"/>
<rect id="Rectangle 308" x="37.4391" y="51.1764" width="2.94118" height="2.82353" fill="white"/>
<rect id="Rectangle 309" x="37.4391" y="54" width="2.94118" height="2.82353" fill="white"/>
<rect id="Rectangle 310" x="37.4391" y="56.8235" width="2.94118" height="2.82353" fill="white"/>
<rect id="Rectangle 311" x="40.3803" y="56.8235" width="2.94118" height="2.82353" fill="white"/>
<rect id="Rectangle 312" x="43.3215" y="56.8235" width="2.94118" height="2.82353" fill="white"/>
<rect id="Rectangle 313" x="46.2626" y="56.8235" width="2.94118" height="2.82353" fill="white"/>
<rect id="Rectangle 321" x="46.2626" y="34.2352" width="2.94118" height="2.82353" fill="white"/>
<rect id="Rectangle 314" x="46.2626" y="54" width="2.94118" height="2.82353" fill="white"/>
<rect id="Rectangle 322" x="46.2626" y="31.4117" width="2.94118" height="2.82353" fill="white"/>
<rect id="Rectangle 315" x="46.2626" y="51.1764" width="2.94118" height="2.82353" fill="white"/>
<rect id="Rectangle 323" x="46.2626" y="28.5883" width="2.94118" height="2.82353" fill="white"/>
<rect id="Rectangle 316" x="46.2626" y="48.3529" width="2.94118" height="2.82353" fill="white"/>
<rect id="Rectangle 324" x="46.2626" y="25.7646" width="2.94118" height="2.82353" fill="white"/>
<rect id="Rectangle 317" x="46.2626" y="45.5294" width="2.94118" height="2.82353" fill="white"/>
<rect id="Rectangle 325" x="46.2626" y="22.9412" width="2.94118" height="2.82353" fill="white"/>
<rect id="Rectangle 318" x="46.2626" y="42.7058" width="2.94118" height="2.82353" fill="white"/>
<rect id="Rectangle 326" x="46.2626" y="20.1176" width="2.94118" height="2.82353" fill="white"/>
<rect id="Rectangle 319" x="46.2626" y="39.8823" width="2.94118" height="2.82353" fill="white"/>
<rect id="Rectangle 327" x="46.2626" y="17.2941" width="2.94118" height="2.82353" fill="white"/>
<rect id="Rectangle 320" x="46.2626" y="37.0588" width="2.94118" height="2.82353" fill="white"/>
<rect id="Rectangle 328" x="46.2626" y="14.4706" width="2.94118" height="2.82353" fill="white"/>
<rect id="Rectangle 329" x="49.2038" y="14.4706" width="2.94118" height="2.82353" fill="white"/>
<rect id="Rectangle 330" x="49.2038" y="11.647" width="2.94118" height="2.82353" fill="white"/>
<rect id="Rectangle 331" x="49.2038" y="8.82349" width="2.94118" height="2.82353" fill="white"/>
<rect id="Rectangle 332" x="46.2626" y="8.82349" width="2.94118" height="2.82353" fill="white"/>
<rect id="Rectangle 333" x="46.2626" y="6" width="2.94118" height="2.82353" fill="white"/>
<rect id="Rectangle 334" x="43.3215" y="6" width="2.94118" height="2.82353" fill="white"/>
<rect id="Rectangle 335" x="40.3803" y="6" width="2.94118" height="2.82353" fill="white"/>
<rect id="Rectangle 336" x="40.3803" y="8.82349" width="2.94118" height="2.82353" fill="white"/>
<rect id="Rectangle 337" x="40.3803" y="11.647" width="2.94118" height="2.82353" fill="white"/>
<rect id="Rectangle 338" x="40.3803" y="14.4706" width="2.94118" height="2.82353" fill="white"/>
<rect id="Rectangle 339" x="40.3803" y="17.2941" width="2.94118" height="2.82353" fill="white"/>
<rect id="Rectangle 340" x="40.3803" y="20.1176" width="2.94118" height="2.82353" fill="white"/>
<rect id="Rectangle 341" x="40.3803" y="22.9412" width="2.94118" height="2.82353" fill="white"/>
<rect id="Rectangle 342" x="37.4391" y="22.9412" width="2.94118" height="2.82353" fill="white"/>
<rect id="Rectangle 343" x="37.4391" y="25.7646" width="2.94118" height="2.82353" fill="white"/>
<rect id="Rectangle 276" x="13.9097" y="51.1764" width="2.94118" height="2.82353" fill="white"/>
<rect id="Rectangle 277" x="16.8509" y="51.1764" width="2.94118" height="2.82353" fill="white"/>
<rect id="Rectangle 278" x="25.6744" y="51.1764" width="2.94118" height="2.82353" fill="white"/>
<rect id="Rectangle 279" x="28.6156" y="51.1764" width="2.94118" height="2.82353" fill="white"/>
<rect id="Rectangle 97" x="28.6156" y="17.2941" width="2.94118" height="2.82353" fill="#8988C4"/>
<rect id="Rectangle 98" x="31.5568" y="17.2941" width="2.94117" height="2.82353" fill="#8988C4"/>
<rect id="Rectangle 99" x="34.4979" y="17.2941" width="2.94118" height="2.82353" fill="#8988C4"/>
<rect id="Rectangle 90" x="16.8509" y="17.2941" width="2.94118" height="2.82353" fill="#6A67B4"/>
<rect id="Rectangle 100" x="16.8509" y="20.1176" width="2.94118" height="2.82353" fill="#AEAFB4"/>
<rect id="Rectangle 103" x="16.8509" y="22.9412" width="2.94118" height="2.82353" fill="#AEAFB4"/>
<rect id="Rectangle 105" x="16.8509" y="25.7646" width="2.94118" height="2.82353" fill="#AEAFB4"/>
<rect id="Rectangle 106" x="16.8509" y="28.5883" width="2.94118" height="2.82353" fill="#AEAFB4"/>
<rect id="Rectangle 114" x="16.8509" y="31.4117" width="2.94118" height="2.82353" fill="#6A67B4"/>
<rect id="Rectangle 115" x="13.9097" y="31.4117" width="2.94118" height="2.82353" fill="#6A67B4"/>
<rect id="Rectangle 118" x="13.9097" y="34.2352" width="2.94118" height="2.82353" fill="#6A67B4"/>
<rect id="Rectangle 122" x="13.9097" y="37.0588" width="2.94118" height="2.82353" fill="#6A67B4"/>
<rect id="Rectangle 124" x="16.8509" y="37.0588" width="2.94118" height="2.82353" fill="#8988C4"/>
<rect id="Rectangle 125" x="19.7921" y="37.0588" width="2.94118" height="2.82353" fill="#8988C4"/>
<rect id="Rectangle 126" x="22.7332" y="37.0588" width="2.94118" height="2.82353" fill="#935BA9"/>
<rect id="Rectangle 127" x="10.9685" y="39.8823" width="2.94118" height="2.82353" fill="#6A67B4"/>
<rect id="Rectangle 132" x="10.9685" y="42.7058" width="2.94118" height="2.82353" fill="#6A67B4"/>
<rect id="Rectangle 135" x="13.9097" y="42.7058" width="2.94118" height="2.82353" fill="#6A67B4"/>
<rect id="Rectangle 136" x="16.8509" y="42.7058" width="2.94118" height="2.82353" fill="#8988C4"/>
<rect id="Rectangle 133" x="8.02734" y="42.7058" width="2.94118" height="2.82353" fill="#6A67B4"/>
<rect id="Rectangle 134" x="5.08615" y="42.7058" width="2.94118" height="2.82353" fill="#6A67B4"/>
<rect id="Rectangle 137" x="8.02734" y="45.5294" width="2.94118" height="2.82353" fill="#6A67B4"/>
<rect id="Rectangle 138" x="10.9685" y="45.5294" width="2.94118" height="2.82353" fill="#6A67B4"/>
<rect id="Rectangle 199" x="13.9097" y="45.5294" width="2.94118" height="2.82353" fill="#6A67B4"/>
<rect id="Rectangle 139" x="13.9097" y="48.3529" width="2.94118" height="2.82353" fill="#6A67B4"/>
<rect id="Rectangle 140" x="16.8509" y="48.3529" width="2.94118" height="2.82353" fill="#EFD590"/>
<rect id="Rectangle 141" x="19.7921" y="51.1764" width="2.94118" height="2.82353" fill="#8988C4"/>
<rect id="Rectangle 143" x="19.7921" y="54" width="2.94118" height="2.82353" fill="#4E4B4C"/>
<rect id="Rectangle 144" x="16.8509" y="54" width="2.94118" height="2.82353" fill="#4E4B4C"/>
<rect id="Rectangle 195" x="13.9097" y="54" width="2.94118" height="2.82353" fill="#4E4B4C"/>
<rect id="Rectangle 196" x="10.9685" y="54" width="2.94118" height="2.82353" fill="#939091"/>
<rect id="Rectangle 197" x="8.02734" y="54" width="2.94118" height="2.82353" fill="#939091"/>
<rect id="Rectangle 198" x="5.08615" y="54" width="2.94118" height="2.82353" fill="#939091"/>
<rect id="Rectangle 142" x="22.7332" y="51.1764" width="2.94118" height="2.82353" fill="#8988C4"/>
<rect id="Rectangle 149" x="22.7332" y="48.3529" width="2.94118" height="2.82353" fill="#935BA9"/>
<rect id="Rectangle 150" x="19.7921" y="48.3529" width="2.94118" height="2.82353" fill="#935BA9"/>
<rect id="Rectangle 151" x="16.8509" y="45.5294" width="2.94118" height="2.82353" fill="#935BA9"/>
<rect id="Rectangle 145" x="22.7332" y="54" width="2.94118" height="2.82353" fill="#6A67B4"/>
<rect id="Rectangle 146" x="25.6744" y="54" width="2.94118" height="2.82353" fill="#4D4C48"/>
<rect id="Rectangle 147" x="28.6156" y="54" width="2.94118" height="2.82353" fill="#4D4C48"/>
<rect id="Rectangle 148" x="31.5568" y="54" width="2.94117" height="2.82353" fill="#6A67B4"/>
<rect id="Rectangle 152" x="31.5568" y="51.1764" width="2.94117" height="2.82353" fill="#8988C4"/>
<rect id="Rectangle 153" x="31.5568" y="48.3529" width="2.94117" height="2.82353" fill="#935BA9"/>
<rect id="Rectangle 154" x="31.5568" y="45.5294" width="2.94117" height="2.82353" fill="#935BA9"/>
<rect id="Rectangle 155" x="31.5568" y="42.7058" width="2.94117" height="2.82353" fill="#935BA9"/>
<rect id="Rectangle 156" x="31.5568" y="39.8823" width="2.94117" height="2.82353" fill="#935BA9"/>
<rect id="Rectangle 157" x="31.5568" y="37.0588" width="2.94117" height="2.82353" fill="#935BA9"/>
<rect id="Rectangle 158" x="34.4979" y="37.0588" width="2.94118" height="2.82353" fill="#8988C4"/>
<rect id="Rectangle 159" x="34.4979" y="34.2352" width="2.94118" height="2.82353" fill="#8988C4"/>
<rect id="Rectangle 161" x="37.4391" y="34.2352" width="2.94118" height="2.82353" fill="#935BA9"/>
<rect id="Rectangle 182" x="37.4391" y="37.0588" width="2.94118" height="2.82353" fill="#935BA9"/>
<rect id="Rectangle 162" x="40.3803" y="34.2352" width="2.94118" height="2.82353" fill="#935BA9"/>
<rect id="Rectangle 166" x="40.3803" y="37.0588" width="2.94118" height="2.82353" fill="#935BA9"/>
<rect id="Rectangle 167" x="40.3803" y="39.8823" width="2.94118" height="2.82353" fill="#935BA9"/>
<rect id="Rectangle 163" x="43.3215" y="34.2352" width="2.94118" height="2.82353" fill="#EFD39C"/>
<rect id="Rectangle 173" x="43.3215" y="31.4117" width="2.94118" height="2.82353" fill="#525554"/>
<rect id="Rectangle 174" x="43.3215" y="28.5883" width="2.94118" height="2.82353" fill="#86878B"/>
<rect id="Rectangle 175" x="43.3215" y="25.7646" width="2.94118" height="2.82353" fill="#86878B"/>
<rect id="Rectangle 176" x="43.3215" y="22.9412" width="2.94118" height="2.82353" fill="#86878B"/>
<rect id="Rectangle 177" x="43.3215" y="20.1176" width="2.94118" height="2.82353" fill="#86878B"/>
<rect id="Rectangle 178" x="43.3215" y="14.4706" width="2.94118" height="2.82353" fill="#65C6D2"/>
<rect id="Rectangle 179" x="43.3215" y="11.647" width="2.94118" height="2.82353" fill="#65C6D2"/>
<rect id="Rectangle 181" x="43.3215" y="8.82349" width="2.94118" height="2.82353" fill="#C9F0F3"/>
<rect id="Rectangle 180" x="46.2626" y="11.647" width="2.94118" height="2.82353" fill="#65C6D2"/>
<rect id="Rectangle 164" x="43.3215" y="37.0588" width="2.94118" height="2.82353" fill="#545557"/>
<rect id="Rectangle 165" x="43.3215" y="39.8823" width="2.94118" height="2.82353" fill="#86878B"/>
<rect id="Rectangle 168" x="43.3215" y="42.7058" width="2.94118" height="2.82353" fill="#86878B"/>
<rect id="Rectangle 169" x="43.3215" y="45.5294" width="2.94118" height="2.82353" fill="#86878B"/>
<rect id="Rectangle 170" x="43.3215" y="48.3529" width="2.94118" height="2.82353" fill="#86878B"/>
<rect id="Rectangle 171" x="43.3215" y="51.1764" width="2.94118" height="2.82353" fill="#86878B"/>
<rect id="Rectangle 172" x="43.3215" y="54" width="2.94118" height="2.82353" fill="#86878B"/>
<rect id="Rectangle 200" x="40.3803" y="54" width="2.94118" height="2.82353" fill="#A8A5A6"/>
<rect id="Rectangle 160" x="34.4979" y="31.4117" width="2.94118" height="2.82353" fill="#8988C4"/>
<rect id="Rectangle 128" x="13.9097" y="39.8823" width="2.94118" height="2.82353" fill="#6A67B4"/>
<rect id="Rectangle 129" x="16.8509" y="39.8823" width="2.94118" height="2.82353" fill="#8988C4"/>
<rect id="Rectangle 130" x="19.7921" y="39.8823" width="2.94118" height="2.82353" fill="#8988C4"/>
<rect id="Rectangle 185" x="19.7921" y="42.7058" width="2.94118" height="2.82353" fill="#935BA9"/>
<rect id="Rectangle 186" x="19.7921" y="45.5294" width="2.94118" height="2.82353" fill="#935BA9"/>
<rect id="Rectangle 187" x="22.7332" y="45.5294" width="2.94118" height="2.82353" fill="#935BA9"/>
<rect id="Rectangle 188" x="22.7332" y="42.7058" width="2.94118" height="2.82353" fill="#935BA9"/>
<rect id="Rectangle 189" x="25.6744" y="42.7058" width="2.94118" height="2.82353" fill="#935BA9"/>
<rect id="Rectangle 190" x="28.6156" y="42.7058" width="2.94118" height="2.82353" fill="#935BA9"/>
<rect id="Rectangle 191" x="28.6156" y="45.5294" width="2.94118" height="2.82353" fill="#935BA9"/>
<rect id="Rectangle 192" x="25.6744" y="45.5294" width="2.94118" height="2.82353" fill="#935BA9"/>
<rect id="Rectangle 193" x="25.6744" y="48.3529" width="2.94118" height="2.82353" fill="#935BA9"/>
<rect id="Rectangle 194" x="28.6156" y="48.3529" width="2.94118" height="2.82353" fill="#935BA9"/>
<rect id="Rectangle 131" x="22.7332" y="39.8823" width="2.94118" height="2.82353" fill="#935BA9"/>
<rect id="Rectangle 183" x="25.6744" y="39.8823" width="2.94118" height="2.82353" fill="#935BA9"/>
<rect id="Rectangle 184" x="28.6156" y="39.8823" width="2.94118" height="2.82353" fill="#935BA9"/>
<rect id="Rectangle 123" x="10.9685" y="37.0588" width="2.94118" height="2.82353" fill="#6A67B4"/>
<rect id="Rectangle 119" x="16.8509" y="34.2352" width="2.94118" height="2.82353" fill="#6A67B4"/>
<rect id="Rectangle 120" x="19.7921" y="34.2352" width="2.94118" height="2.82353" fill="#8988C4"/>
<rect id="Rectangle 121" x="22.7332" y="34.2352" width="2.94118" height="2.82353" fill="#935BA9"/>
<rect id="Rectangle 116" x="19.7921" y="31.4117" width="2.94118" height="2.82353" fill="#8988C4"/>
<rect id="Rectangle 117" x="28.6156" y="28.5883" width="2.94118" height="2.82353" fill="#AD7D3C"/>
<rect id="Rectangle 104" x="19.7921" y="22.9412" width="2.94118" height="2.82353" fill="#AEAFB4"/>
<rect id="Rectangle 111" x="19.7921" y="25.7646" width="2.94118" height="2.82353" fill="#A77849"/>
<rect id="Rectangle 113" x="19.7921" y="28.5883" width="2.94118" height="2.82353" fill="#A77849"/>
<rect id="Rectangle 112" x="22.7332" y="25.7646" width="2.94118" height="2.82353" fill="#EFD39C"/>
<rect id="Rectangle 107" x="22.7332" y="22.9412" width="2.94118" height="2.82353" fill="#2F3127"/>
<rect id="Rectangle 108" x="25.6744" y="22.9412" width="2.94118" height="2.82353" fill="#BA9461"/>
<rect id="Rectangle 109" x="28.6156" y="22.9412" width="2.94118" height="2.82353" fill="#BA9461"/>
<rect id="Rectangle 110" x="31.5568" y="22.9412" width="2.94117" height="2.82353" fill="#2F3127"/>
<rect id="Rectangle 101" x="19.7921" y="20.1176" width="2.94118" height="2.82353" fill="#AEAFB4"/>
<rect id="Rectangle 102" x="22.7332" y="20.1176" width="2.94118" height="2.82353" fill="#AEAFB4"/>
<rect id="Rectangle 91" x="13.9097" y="17.2941" width="2.94118" height="2.82353" fill="#6A67B4"/>
<rect id="Rectangle 82" x="22.7332" y="11.647" width="2.94118" height="2.82353" fill="#D9D9D9"/>
<rect id="Rectangle 84" x="22.7332" y="11.647" width="2.94118" height="2.82353" fill="#8988C4"/>
<rect id="Rectangle 85" x="25.6744" y="11.647" width="2.94118" height="2.82353" fill="#8988C4"/>
<rect id="Rectangle 79" x="19.7921" y="8.82349" width="2.94118" height="2.82353" fill="#8988C4"/>
<rect id="Rectangle 80" x="22.7332" y="8.82349" width="2.94118" height="2.82353" fill="#8988C4"/>
</g>
<defs>
<filter id="filter0_d_131_510" x="0.262636" y="0.352905" width="53.7647" height="63.0588" filterUnits="userSpaceOnUse" color-interpolation-filters="sRGB">
<feFlood flood-opacity="0" result="BackgroundImageFix"/>
<feColorMatrix in="SourceAlpha" type="matrix" values="0 0 0 0 0 0 0 0 0 0 0 0 0 0 0 0 0 0 127 0" result="hardAlpha"/>
<feOffset dy="1.88235"/>
<feGaussianBlur stdDeviation="0.941177"/>
<feComposite in2="hardAlpha" operator="out"/>
<feColorMatrix type="matrix" values="0 0 0 0 0 0 0 0 0 0 0 0 0 0 0 0 0 0 0.25 0"/>
<feBlend mode="normal" in2="BackgroundImageFix" result="effect1_dropShadow_131_510"/>
<feBlend mode="normal" in="SourceGraphic" in2="effect1_dropShadow_131_510" result="shape"/>
</filter>
</defs>
</svg>
